<?xml version="1.0" encoding="utf-8"?>
<!-- Generator: Adobe Illustrator 24.1.2, SVG Export Plug-In . SVG Version: 6.00 Build 0)  -->
<svg version="1.1" id="Слой_1" xmlns="http://www.w3.org/2000/svg" xmlns:xlink="http://www.w3.org/1999/xlink" x="0px" y="0px"
	 viewBox="0 0 36 36" style="enable-background:new 0 0 36 36;" xml:space="preserve">
<style type="text/css">
	.st0{fill:none;}
	.st1{fill:#388E3C;}
</style>
<path class="st0" d="M0,0h36v36H0V0z"/>
<path class="st1" d="M24.8,9v17.3c0,3.3-2.7,6-6,6s-6-2.7-6-6V7.5c0-2.1,1.7-3.8,3.8-3.8s3.8,1.7,3.8,3.8v15.8
	c0,0.8-0.7,1.5-1.5,1.5s-1.5-0.7-1.5-1.5V9H15v14.3c0,2.1,1.7,3.8,3.8,3.8s3.8-1.7,3.8-3.8V7.5c0-3.3-2.7-6-6-6s-6,2.7-6,6v18.8
	c0,4.6,3.7,8.3,8.3,8.3s8.3-3.7,8.3-8.3V9H24.8z"/>
</svg>
